<?xml version="1.0" standalone="no"?>
<!DOCTYPE svg PUBLIC "-//W3C//DTD SVG 20010904//EN"
 "http://www.w3.org/TR/2001/REC-SVG-20010904/DTD/svg10.dtd">
<svg version="1.0" xmlns="http://www.w3.org/2000/svg"
 width="1200.000000pt" height="1200.000000pt" viewBox="0 0 1200.000000 1200.000000"
 preserveAspectRatio="xMidYMid meet">
<metadata>
Created by potrace 1.15, written by Peter Selinger 2001-2017
</metadata>
<g transform="translate(0.000000,1200.000000) scale(0.100000,-0.100000)"
fill="#000000" stroke="none">
<path d="M5750 11534 c-148 -16 -292 -55 -395 -106 -118 -59 -3937 -2264
-3993 -2306 -185 -137 -337 -347 -405 -557 -60 -186 -57 -33 -57 -2555 0
-2522 -3 -2369 57 -2555 68 -210 221 -421 405 -558 46 -33 2378 -1385 3725
-2159 279 -160 379 -203 548 -240 87 -18 342 -15 434 6 102 23 234 71 310 112
231 127 3879 2235 3931 2272 91 65 218 195 280 287 83 123 140 262 177 427 17
79 18 194 18 2408 0 2214 -1 2329 -18 2408 -36 164 -95 300 -188 439 -62 91
-196 225 -285 285 -57 38 -3710 2148 -3914 2260 -81 45 -210 91 -315 112 -82
16 -253 27 -315 20z m2189 -2774 c224 -20 407 -95 569 -235 172 -148 296 -367
331 -585 15 -92 15 -2964 0 -3063 -89 -593 -500 -1061 -1074 -1223 -177 -50
-400 -67 -510 -38 -133 34 -111 14 -1160 1064 l-985 985 0 -998 0 -999 -34
-34 -34 -34 -485 0 c-522 0 -578 4 -725 54 -237 81 -459 270 -572 487 -44 85
-61 127 -93 234 -21 70 -21 77 -24 1575 -3 1313 -2 1517 12 1602 48 302 180
565 393 782 278 282 653 438 1027 424 133 -5 198 -23 288 -79 32 -20 432 -412
1035 -1013 l982 -981 0 1006 c0 1001 0 1006 21 1033 11 14 35 30 52 35 44 13
845 13 986 1z"/>
</g>
</svg>
